<svg width="16" height="19" viewBox="0 0 16 19" fill="none" xmlns="http://www.w3.org/2000/svg">
<path d="M8.00008 8.43069C8.72526 8.43069 9.43421 8.19608 10.0372 7.75654C10.6402 7.31701 11.1101 6.6923 11.3876 5.96139C11.6652 5.23049 11.7378 4.42622 11.5963 3.6503C11.4548 2.87437 11.1056 2.16164 10.5928 1.60223C10.08 1.04282 9.42669 0.661865 8.71545 0.507525C8.00412 0.353185 7.26693 0.432395 6.59694 0.735145C5.92691 1.03789 5.35426 1.55059 4.95136 2.20839C4.54846 2.86618 4.33341 3.63953 4.33341 4.43067C4.33453 5.49116 4.7212 6.50787 5.40859 7.25775C6.09598 8.00759 7.02796 8.42948 8.00008 8.43069ZM8.00008 2.43067C8.36271 2.43067 8.7171 2.54797 9.01859 2.76772C9.32008 2.98748 9.55511 3.29985 9.6939 3.6653C9.83259 4.03075 9.86889 4.43289 9.79821 4.82085C9.72745 5.20881 9.55282 5.56518 9.29643 5.84487C9.04004 6.12458 8.71334 6.31507 8.35776 6.39224C8.0021 6.46941 7.63351 6.42979 7.29846 6.27842C6.96351 6.12704 6.67715 5.8707 6.47576 5.5418C6.27427 5.2129 6.16675 4.82622 6.16675 4.43067C6.1673 3.90041 6.36062 3.39207 6.70437 3.01713C7.04803 2.64219 7.51406 2.43128 8.00008 2.43067ZM15.0648 13.2044C13.6517 11.6596 11.8439 10.6163 9.87815 10.2112L8.00008 12.7433L6.12201 10.2116C4.15626 10.6167 2.34846 11.66 0.935332 13.2048L0.666748 13.4978V19.0007H15.3334V13.4978L15.0648 13.2044ZM13.5001 17.0007H2.50008V14.3391C3.34591 13.4947 4.3466 12.8562 5.4358 12.4658L6.57494 14.0014L8.00008 15.9226L9.42522 14.0015L10.5644 12.4658C11.6535 12.8562 12.6543 13.4947 13.5001 14.3391V17.0007Z" fill="#202020"/>
</svg>
