<svg width="12" height="20" viewBox="0 0 12 20" fill="none" xmlns="http://www.w3.org/2000/svg">
<path d="M9.20833 0H2.79167C2.18388 0 1.60098 0.26339 1.17121 0.73223C0.741441 1.20107 0.5 1.83696 0.5 2.5V17.5C0.5 18.163 0.741441 18.7989 1.17121 19.2678C1.60098 19.7366 2.18388 20 2.79167 20H9.20833C9.81608 20 10.399 19.7366 10.8288 19.2678C11.2585 18.7989 11.5 18.163 11.5 17.5V2.5C11.5 1.83696 11.2585 1.20107 10.8288 0.73223C10.399 0.26339 9.81608 0 9.20833 0ZM9.66667 17.5C9.66648 17.6326 9.61818 17.7596 9.53228 17.8534C9.4463 17.9471 9.32988 17.9998 9.20833 18H2.79167C2.67015 17.9998 2.55366 17.9471 2.46773 17.8534C2.38182 17.7596 2.33348 17.6326 2.33333 17.5V2.5C2.33348 2.36744 2.38182 2.24036 2.46773 2.14662C2.55366 2.05289 2.67015 2.00016 2.79167 2H9.20833C9.32988 2.00016 9.4463 2.05289 9.53228 2.14662C9.61818 2.24036 9.66648 2.36744 9.66667 2.5V17.5ZM6 15C5.81868 15 5.64149 15.0586 5.4907 15.1685C5.34 15.2784 5.22248 15.4346 5.15309 15.6173C5.0837 15.8 5.06555 16.0011 5.10093 16.1951C5.13632 16.3891 5.22358 16.5673 5.35183 16.7071C5.47998 16.847 5.64333 16.9422 5.82116 16.9808C5.99899 17.0194 6.18333 16.9996 6.35081 16.9239C6.51828 16.8482 6.66147 16.72 6.76221 16.5556C6.86295 16.3911 6.91667 16.1978 6.91667 16C6.91667 15.7348 6.82005 15.4804 6.64818 15.2929C6.4763 15.1054 6.2431 15 6 15Z" fill="#202020"/>
</svg>
